{"title":"Voluptuous Chick fucking client in massage centre (censored)[VPS","uid":10759153,"size":545868042,"categoryP":"porn","categoryS":"other","magnet":"?xt=urn:btih:60bd9d603c7a6430d8f393090cc8ee06581fa8ea&amp;dn=Voluptuous+Chick+fucking+client+in+massage+centre+%28censored%29%5BVPS&amp;tr=udp%3A%2F%2Ftracker.openbittorrent.com%3A80&amp;tr=udp%3A%2F%2Fopen.demonii.com%3A1337&amp;tr=udp%3A%2F%2Ftracker.coppersurfer.tk%3A6969&amp;tr=udp%3A%2F%2Fexodus.desync.com%3A6969","seeders":0,"leechers":1,"uploader":"vpsr","files":1,"time":1407958609,"description":"Voluptuous Chick fucking client in massage centre (censored)[VPSR].avi\n\n &lt;a href=&quot;\nhttp://s25.postimg.org/3yivp468v/voluptuous.jpg&quot; rel=&quot;nofollow&quot; target=&quot;_NEW&quot;&gt;\nhttp://s25.postimg.org/3yivp468v/voluptuous.jpg&lt;/a&gt;\n\n &lt;a href=&quot;\nhttp://s25.postimg.org/t5trpd9cv/Voluptuous_Chick_fucking_client_in_massage_centr.jpg&quot; rel=&quot;nofollow&quot; target=&quot;_NEW&quot;&gt;\nhttp://s25.postimg.org/t5trpd9cv/Voluptuous_Chick_fucking_client_in_massage_centr.jpg&lt;/a&gt;\n\n\nFILE INFO\n\n\nGeneral\nComplete name                            : Voluptuous Chick fucking client in massage centre (censored)[VPSR].avi\nFormat                                   : MPEG-4\nFormat profile                           : Base Media / Version 2\nCodec ID                                 : mp42\nFile size                                : 521 MiB\nDuration                                 : 59mn 5s\nOverall bit rate mode                    : Variable\nOverall bit rate                         : 1 232 Kbps\n\nVideo\nID                                       : 1\nFormat                                   : AVC\nFormat/Info                              : Advanced Video Codec\nFormat profile                           : &lt;a class=&quot;__cf_email__&quot; href=&quot;/cdn-cgi/l/email-protection&quot; data-cfemail=&quot;94d6f5e7f1f8fdfaf1d4d8a7baa4&quot;&gt;[email&amp;#160;protected]&lt;/a&gt;&lt;script cf-hash='f9e31' type=&quot;text/javascript&quot;&gt;\n/* &lt;![CDATA[ */!function(){try{var t=&quot;currentScript&quot;in document?document.currentScript:function(){for(var t=document.getElementsByTagName(&quot;script&quot;),e=t.length;e--;)if(t[e].getAttribute(&quot;cf-hash&quot;))return t[e]}();if(t&amp;&amp;t.previousSibling){var e,r,n,i,c=t.previousSibling,a=c.getAttribute(&quot;data-cfemail&quot;);if(a){for(e=&quot;&quot;,r=parseInt(a.substr(0,2),16),n=2;a.length-n;n+=2)i=parseInt(a.substr(n,2),16)^r,e+=String.fromCharCode(i);e=document.createTextNode(e),c.parentNode.replaceChild(e,c)}}}catch(u){}}();/* ]]&gt; */&lt;/script&gt;\nFormat settings, CABAC                   : No\nFormat settings, ReFrames                : 1 frame\nFormat settings, GOP                     : M=1, N=33\nCodec ID                                 : avc1\nCodec ID/Info                            : Advanced Video Coding\nDuration                                 : 59mn 5s\nBit rate mode                            : Constant\nBit rate                                 : 1 100 Kbps\nWidth                                    : 720 pixels\nHeight                                   : 396 pixels\nDisplay aspect ratio                     : 16:9\nFrame rate mode                          : Variable\nFrame rate                               : 30.000 fps\nMinimum frame rate                       : 30.000 fps\nMaximum frame rate                       : 30.010 fps\nStandard                                 : NTSC\nColor space                              : YUV\nChroma subsampling                       : 4:2:0\nBit depth                                : 8 bits\nScan type                                : Progressive\nBits/(Pixel*Frame)                       : 0.129\nStream size                              : 465 MiB (89%)\nLanguage                                 : English\n\nAudio\nID                                       : 2\nFormat                                   : AAC\nFormat/Info                              : Advanced Audio Codec\nFormat profile                           : LC\nCodec ID                                 : 40\nDuration                                 : 59mn 5s\nSource duration                          : 59mn 5s\nBit rate mode                            : Variable\nBit rate                                 : 127 Kbps\nChannel(s)                               : 2 channels\nChannel positions                        : Front: L R\nSampling rate                            : 44.1 KHz\nCompression mode                         : Lossy\nStream size                              : 53.9 MiB (10%)\nSource stream size                       : 53.9 MiB (10%)\nLanguage                                 : English\nmdhd_Duration                            : 3545644\n\n","torrent":{"xt":"urn:btih:60bd9d603c7a6430d8f393090cc8ee06581fa8ea","amp;dn":"Voluptuous+Chick+fucking+client+in+massage+centre+%28censored%29%5BVPS","amp;tr":["udp%3A%2F%2Ftracker.openbittorrent.com%3A80","udp%3A%2F%2Fopen.demonii.com%3A1337","udp%3A%2F%2Ftracker.coppersurfer.tk%3A6969","udp%3A%2F%2Fexodus.desync.com%3A6969"],"infoHash":"60bd9d603c7a6430d8f393090cc8ee06581fa8ea","infoHashBuffer":{"type":"Buffer","data":[96,189,157,96,60,122,100,48,216,243,147,9,12,200,238,6,88,31,168,234]},"announce":[],"urlList":[]}}